HIERARCHY
ROOT Hips
{
  OFFSET 0 0 0
  CHANNELS 6 Xposition Yposition Zposition Zrotation Yrotation Xrotation
  JOINT LeftThigh
  {
    OFFSET 8.409438 0 -5.917753
    CHANNELS 3 Zrotation Yrotation Xrotation
    JOINT LeftLeg
    {
      OFFSET 0 0 -42.358652
      CHANNELS 3 Zrotation Yrotation Xrotation
      JOINT LeftFoot
      {
        OFFSET 0 0 -39.357303
        CHANNELS 3 Zrotation Yrotation Xrotation
      }
    }
  }
  JOINT RightThigh
  {
    OFFSET -8.409438 0 -5.917753
    CHANNELS 3 Zrotation Yrotation Xrotation
    JOINT RightLeg
    {
      OFFSET 0 0 -42.358652
      CHANNELS 3 Zrotation Yrotation Xrotation
      JOINT RightFoot
      {
        OFFSET 0 0 -39.357303
        CHANNELS 3 Zrotation Yrotation Xrotation
      }
    }
  }
  JOINT SpineLow
  {
    OFFSET 0 0 4.719101
    CHANNELS 3 Zrotation Yrotation Xrotation
    JOINT SpineMid
    {
      OFFSET 0 0 12.899191
      CHANNELS 3 Zrotation Yrotation Xrotation
      JOINT Chest
      {
        OFFSET 0 0 12.899191
        CHANNELS 3 Zrotation Yrotation Xrotation
        JOINT LeftShoulder
        {
          OFFSET 7.550562 1.41573 9.438202
          CHANNELS 3 Zrotation Yrotation Xrotation
          JOINT LeftArm
          {
            OFFSET 9.155056 0 4.247191
            CHANNELS 3 Zrotation Yrotation Xrotation
            JOINT LeftForearm
            {
              OFFSET 0 0 25.771955
              CHANNELS 3 Zrotation Yrotation Xrotation
              JOINT LeftHand
              {
                OFFSET 0 0 25.197169
                CHANNELS 3 Zrotation Yrotation Xrotation
              }
            }
          }
        }
        JOINT RightShoulder
        {
          OFFSET -7.550562 1.41573 9.438202
          CHANNELS 3 Zrotation Yrotation Xrotation
          JOINT RightArm
          {
            OFFSET -9.155056 0 4.247191
            CHANNELS 3 Zrotation Yrotation Xrotation
            JOINT RightForearm
            {
              OFFSET 0 0 -25.771955
              CHANNELS 3 Zrotation Yrotation Xrotation
              JOINT RightHand
              {
                OFFSET 0 0 -25.197169
                CHANNELS 3 Zrotation Yrotation Xrotation
              }
            }
          }
        }
        JOINT Neck
        {
          OFFSET 0 0 15.101124
          CHANNELS 3 Zrotation Yrotation Xrotation
          JOINT Head
          {
            OFFSET 0 0 11.325843
            CHANNELS 3 Zrotation Yrotation Xrotation
            End Site
            {
              OFFSET 0 0 14.157303
            }
          }
        }
      }
    }
  }
}
MOTION
Frames: 10
Frame Time: 0.0
0.0  89.887642  0.0  -5.803462  -63.677264  -97.206844  18.027832  -19.522985  10.003541  26.902349  -3.92617  32.831093  3.322424  -1.530078  -2.377579  2.741704  -3.442233  -17.184023  8.988327  -1.362691  33.64701  12.67246  3.282718  1.738232  2.200966  1.870677  1.93381  6.172051  4.928457  5.460637  6.172051  4.928457  5.460637  -25.37949  -0.147645  8.359037  156.546885  47.818504  -132.318509  -60.726952  45.223542  75.661406  92.687833  -18.904482  -39.096051  12.385373  -38.168527  8.806497  101.634218  39.756124  19.769887  18.994208  43.281338  -42.056095  94.739646  -30.640507  -11.906775  4.367651  -21.331212  -25.824937  2.300648  -16.213698  -18.979557  
0.0  89.887642  0.0  -6.273963  -62.533501  -97.121769  16.817194  -19.256115  10.847053  27.931686  -4.285788  31.267343  3.228642  -1.571434  -2.355999  1.909096  -3.703721  -15.543041  8.750075  -0.57389  31.904757  12.609775  3.155022  1.733461  2.016746  1.599486  1.671271  5.627274  4.226648  4.704007  5.627275  4.226648  4.704007  -27.144896  1.557453  10.299665  160.515172  49.230894  -129.122861  -55.77942  42.090732  80.888817  98.582052  -16.239466  -38.593531  8.580565  -37.380978  11.208901  96.300332  39.859581  17.271772  17.095751  47.115084  -51.775777  94.012996  -29.506929  -12.890548  3.639339  -20.536934  -23.958826  1.86514  -15.57105  -17.644304  
0.0  89.887642  0.0  -7.065968  -60.671557  -96.50174  16.210382  -19.381595  11.09973  28.223972  -4.509835  29.685799  3.128371  -1.42367  -2.377329  0.940107  -4.032396  -13.97116  8.467953  0.19179  29.888941  12.331262  3.02057  1.670439  1.691763  1.249662  1.253829  4.691318  3.325095  3.515479  4.691318  3.325095  3.515478  -28.168071  3.886631  12.333122  165.53223  51.516904  -125.071869  -52.763597  40.338445  84.505996  102.373911  -11.517203  -39.621931  4.817102  -36.295593  14.183826  94.425355  39.330933  17.56938  10.576224  48.404053  -62.922311  92.307383  -27.056338  -12.176348  2.812318  -19.471892  -21.682176  1.374665  -14.723853  -16.008344  
0.0  89.887642  0.0  -7.862083  -58.155716  -95.688743  16.409587  -19.97967  10.717975  27.683005  -4.470576  28.203051  2.923156  -1.249614  -2.380164  -0.051985  -4.33386  -12.494431  8.025645  0.980382  27.662402  11.987207  2.894707  1.624002  1.136864  0.688646  0.526353  3.123082  1.857018  1.471097  3.123082  1.857018  1.471097  -27.713469  8.355907  14.825167  171.672168  54.03749  -120.29988  -50.311285  39.383983  86.991317  103.471289  -6.345083  -40.89328  1.209843  -33.227967  19.09852  95.031119  38.629147  19.026  2.752373  46.704886  -72.568279  91.113021  -25.19812  -13.632047  2.159812  -17.598123  -18.325728  1.064854  -13.276552  -13.570017  
0.0  89.887642  0.0  -8.445703  -54.960015  -94.861784  17.28951  -20.966517  9.50645  26.422571  -4.194644  27.091903  2.581912  -1.085621  -2.329692  -1.103322  -4.470857  -11.149618  7.189643  1.819998  25.276036  11.669414  2.811608  1.570663  0.506487  0.273737  0.058552  1.385148  0.746969  0.165776  1.385148  0.746969  0.165776  -26.806959  11.05756  15.452837  179.220258  55.820069  -113.882665  -48.907828  40.295302  87.440401  104.664786  -0.867003  -40.481747  -0.50762  -30.362231  20.989657  95.234817  37.1718  19.907477  -0.612283  38.84802  -74.806632  91.330767  -20.830402  -13.005992  1.995138  -15.964762  -16.255074  1.052592  -12.036148  -12.057783  
0.0  89.887642  0.0  -8.882704  -51.056837  -93.857103  18.368752  -21.773953  7.759367  24.82869  -3.905056  25.917473  2.142023  -0.927493  -2.319513  -2.291102  -4.528152  -10.041904  5.763635  2.794268  22.703385  11.198275  2.756989  1.510186  -0.135057  0.035796  -0.229302  -0.369501  0.096564  -0.626971  -0.369501  0.096564  -0.626971  -25.982669  11.743544  14.805027  -172.473999  56.402808  -106.873735  -49.043935  44.744014  86.209471  107.993639  5.075754  -36.69627  -1.266897  -28.240385  20.786857  92.847492  35.2767  19.961972  -5.489638  26.737112  -79.807097  95.442551  -17.779285  -16.730397  1.900145  -14.814744  -15.148384  1.043048  -11.165873  -11.250129  
0.0  89.887642  0.0  -9.054258  -46.828677  -93.064341  19.687135  -22.322661  5.78984  23.022332  -3.642173  24.78874  1.611557  -0.775069  -2.378514  -3.429053  -4.404552  -8.924937  4.149497  3.669201  20.020018  10.584016  2.67162  1.471047  -0.744347  -0.145678  -0.44024  -2.031892  -0.411687  -1.198753  -2.031892  -0.411687  -1.198753  -25.022175  11.540924  13.736954  -164.52737  55.858085  -99.580498  -50.611484  49.44653  82.60995  112.812183  9.964466  -29.950041  -1.651995  -26.17858  19.883472  86.946974  33.634824  18.539797  -2.728459  17.652308  -86.785181  94.646515  -19.989191  -20.171536  1.681138  -13.746952  -14.353853  0.926755  -10.356173  -10.674671  
0.0  89.887642  0.0  -9.122521  -42.227768  -92.206499  21.059736  -22.742321  3.400441  21.010231  -3.253413  23.800544  1.08539  -0.524545  -2.517025  -4.647832  -4.112642  -7.949345  2.167148  4.321748  17.246262  9.929476  2.603289  1.387955  -1.265309  -0.279057  -0.5406  -3.452309  -0.790769  -1.462678  -3.452309  -0.790769  -1.462678  -24.615099  10.486683  12.030891  -158.329798  55.185498  -92.970343  -51.067348  50.323338  79.609518  117.586378  13.867602  -21.993937  -2.264533  -24.295289  18.455581  78.885671  32.27468  16.146541  3.661641  9.996524  -93.214889  92.969294  -21.774362  -24.000722  1.137135  -12.73977  -14.12762  0.550677  -9.586981  -10.527531  
0.0  89.887642  0.0  -8.66225  -39.38605  -92.389534  25.076787  -22.335129  2.055812  17.986373  -3.109725  21.896521  0.565892  -0.313333  -2.482467  -3.588057  -3.300488  -6.281802  -0.531201  4.702232  14.493324  9.411749  2.630628  1.308179  -1.325416  -0.335377  -0.420588  -3.617158  -0.939417  -1.130932  -3.617158  -0.939417  -1.130932  -25.202228  8.704386  9.768131  -152.903019  55.701347  -86.699593  -47.94392  44.955593  81.526845  120.005185  18.812675  -13.694585  -3.833885  -22.53074  17.818385  71.069884  32.238789  13.678511  10.98149  3.437812  -98.881662  91.474907  -21.682591  -27.825375  0.091034  -11.729903  -14.43127  -0.212662  -8.805311  -10.78348  
0.0  89.887642  0.0  -8.548446  -34.483992  -91.837782  25.84563  -22.232315  0.057326  16.062307  -2.52764  20.916634  -0.029773  -0.221523  -2.507593  -4.537125  -2.625563  -5.291923  -3.52376  4.830303  12.035667  8.669044  2.579774  1.208526  -1.584889  -0.428625  -0.417704  -4.32502  -1.198353  -1.113217  -4.32502  -1.198353  -1.113217  -26.276693  6.856233  7.861115  -147.041943  57.210687  -80.040951  -42.149181  33.452654  86.820431  120.193998  25.221008  -5.087378  -5.910946  -20.627858  17.019338  65.471839  32.04153  12.890356  16.286163  -1.806957  -104.606064  90.323186  -19.252882  -31.848456  -1.322402  -10.603915  -14.722488  -1.247956  -7.92664  -11.033286  
